<?xml version="1.0" encoding="UTF-8"?>
<svg xmlns="http://www.w3.org/2000/svg" xmlns:xlink="http://www.w3.org/1999/xlink" width="64pt" height="60pt" viewBox="0 0 64 60" version="1.1">
<g id="surface1">
<path style="fill:none;stroke-width:2;stroke-linecap:butt;stroke-linejoin:miter;stroke:rgb(41.960784%,42.352941%,43.137255%);stroke-opacity:1;stroke-miterlimit:4;" d="M 60.800781 52.101562 L 58 52.101562 L 58 20.699219 C 58 18.5 51 12.800781 51 12.800781 C 51 12.800781 37 18.5 37 20.699219 L 37 56 L 31 56 L 31 7.898438 C 31 5.699219 22 0 22 0 C 22 0 4 5.699219 4 7.898438 L 4 52.101562 L 1 52.101562 C -0.101562 52.101562 0 53 0 54.101562 C 0 55.199219 -0.101562 56.101562 1 56.101562 L 60.800781 56.101562 C 62.199219 56.101562 62 55.199219 62 54.101562 C 62 53 62.199219 52.101562 60.800781 52.101562 Z M 60.800781 52.101562 " transform="matrix(1,0,0,1,1,2)"/>
<path style="fill:none;stroke-width:2;stroke-linecap:butt;stroke-linejoin:miter;stroke:rgb(41.960784%,42.352941%,43.137255%);stroke-opacity:1;stroke-miterlimit:4;" d="M 22 0 L 22 49.101562 " transform="matrix(1,0,0,1,1,2)"/>
<path style="fill:none;stroke-width:2;stroke-linecap:butt;stroke-linejoin:miter;stroke:rgb(41.960784%,42.352941%,43.137255%);stroke-opacity:1;stroke-miterlimit:4;" d="M 7 11.800781 L 14 8.800781 " transform="matrix(1,0,0,1,1,2)"/>
<path style="fill:none;stroke-width:2;stroke-linecap:butt;stroke-linejoin:miter;stroke:rgb(41.960784%,42.352941%,43.137255%);stroke-opacity:1;stroke-miterlimit:4;" d="M 7 17.699219 L 14 14.699219 " transform="matrix(1,0,0,1,1,2)"/>
<path style="fill:none;stroke-width:2;stroke-linecap:butt;stroke-linejoin:miter;stroke:rgb(41.960784%,42.352941%,43.137255%);stroke-opacity:1;stroke-miterlimit:4;" d="M 7 22.601562 L 14 19.601562 " transform="matrix(1,0,0,1,1,2)"/>
<path style="fill:none;stroke-width:2;stroke-linecap:butt;stroke-linejoin:miter;stroke:rgb(41.960784%,42.352941%,43.137255%);stroke-opacity:1;stroke-miterlimit:4;" d="M 7 27.5 L 14 24.601562 " transform="matrix(1,0,0,1,1,2)"/>
<path style="fill:none;stroke-width:2;stroke-linecap:butt;stroke-linejoin:miter;stroke:rgb(41.960784%,42.352941%,43.137255%);stroke-opacity:1;stroke-miterlimit:4;" d="M 7 33.398438 L 14 30.5 " transform="matrix(1,0,0,1,1,2)"/>
<path style="fill:none;stroke-width:2;stroke-linecap:butt;stroke-linejoin:miter;stroke:rgb(41.960784%,42.352941%,43.137255%);stroke-opacity:1;stroke-miterlimit:4;" d="M 7 38.300781 L 14 35.398438 " transform="matrix(1,0,0,1,1,2)"/>
<path style="fill:none;stroke-width:2;stroke-linecap:butt;stroke-linejoin:miter;stroke:rgb(41.960784%,42.352941%,43.137255%);stroke-opacity:1;stroke-miterlimit:4;" d="M 7 44.199219 L 14 41.300781 " transform="matrix(1,0,0,1,1,2)"/>
<path style="fill:none;stroke-width:2;stroke-linecap:butt;stroke-linejoin:miter;stroke:rgb(41.960784%,42.352941%,43.137255%);stroke-opacity:1;stroke-miterlimit:4;" d="M 7 49.101562 L 14 46.199219 " transform="matrix(1,0,0,1,1,2)"/>
<path style="fill:none;stroke-width:2;stroke-linecap:butt;stroke-linejoin:miter;stroke:rgb(41.960784%,42.352941%,43.137255%);stroke-opacity:1;stroke-miterlimit:4;" d="M 16 7.898438 L 19 6.898438 " transform="matrix(1,0,0,1,1,2)"/>
<path style="fill:none;stroke-width:2;stroke-linecap:butt;stroke-linejoin:miter;stroke:rgb(41.960784%,42.352941%,43.137255%);stroke-opacity:1;stroke-miterlimit:4;" d="M 16 13.800781 L 19 12.800781 " transform="matrix(1,0,0,1,1,2)"/>
<path style="fill:none;stroke-width:2;stroke-linecap:butt;stroke-linejoin:miter;stroke:rgb(41.960784%,42.352941%,43.137255%);stroke-opacity:1;stroke-miterlimit:4;" d="M 16 18.699219 L 19 17.699219 " transform="matrix(1,0,0,1,1,2)"/>
<path style="fill:none;stroke-width:2;stroke-linecap:butt;stroke-linejoin:miter;stroke:rgb(41.960784%,42.352941%,43.137255%);stroke-opacity:1;stroke-miterlimit:4;" d="M 16 23.601562 L 19 22.601562 " transform="matrix(1,0,0,1,1,2)"/>
<path style="fill:none;stroke-width:2;stroke-linecap:butt;stroke-linejoin:miter;stroke:rgb(41.960784%,42.352941%,43.137255%);stroke-opacity:1;stroke-miterlimit:4;" d="M 16 29.5 L 19 28.5 " transform="matrix(1,0,0,1,1,2)"/>
<path style="fill:none;stroke-width:2;stroke-linecap:butt;stroke-linejoin:miter;stroke:rgb(41.960784%,42.352941%,43.137255%);stroke-opacity:1;stroke-miterlimit:4;" d="M 16 34.398438 L 19 33.398438 " transform="matrix(1,0,0,1,1,2)"/>
<path style="fill:none;stroke-width:2;stroke-linecap:butt;stroke-linejoin:miter;stroke:rgb(41.960784%,42.352941%,43.137255%);stroke-opacity:1;stroke-miterlimit:4;" d="M 16 40.300781 L 19 39.300781 " transform="matrix(1,0,0,1,1,2)"/>
<path style="fill:none;stroke-width:2;stroke-linecap:butt;stroke-linejoin:miter;stroke:rgb(41.960784%,42.352941%,43.137255%);stroke-opacity:1;stroke-miterlimit:4;" d="M 16 45.199219 L 19 44.199219 " transform="matrix(1,0,0,1,1,2)"/>
<path style="fill:none;stroke-width:2;stroke-linecap:butt;stroke-linejoin:miter;stroke:rgb(41.960784%,42.352941%,43.137255%);stroke-opacity:1;stroke-miterlimit:4;" d="M 51 12.800781 L 51 49.101562 " transform="matrix(1,0,0,1,1,2)"/>
<path style="fill:none;stroke-width:2;stroke-linecap:butt;stroke-linejoin:miter;stroke:rgb(41.960784%,42.352941%,43.137255%);stroke-opacity:1;stroke-miterlimit:4;" d="M 40 23.601562 L 47 20.601562 " transform="matrix(1,0,0,1,1,2)"/>
<path style="fill:none;stroke-width:2;stroke-linecap:butt;stroke-linejoin:miter;stroke:rgb(41.960784%,42.352941%,43.137255%);stroke-opacity:1;stroke-miterlimit:4;" d="M 40 28.5 L 47 25.5 " transform="matrix(1,0,0,1,1,2)"/>
<path style="fill:none;stroke-width:2;stroke-linecap:butt;stroke-linejoin:miter;stroke:rgb(41.960784%,42.352941%,43.137255%);stroke-opacity:1;stroke-miterlimit:4;" d="M 40 33.398438 L 47 30.5 " transform="matrix(1,0,0,1,1,2)"/>
<path style="fill:none;stroke-width:2;stroke-linecap:butt;stroke-linejoin:miter;stroke:rgb(41.960784%,42.352941%,43.137255%);stroke-opacity:1;stroke-miterlimit:4;" d="M 40 39.300781 L 47 36.300781 " transform="matrix(1,0,0,1,1,2)"/>
<path style="fill:none;stroke-width:2;stroke-linecap:butt;stroke-linejoin:miter;stroke:rgb(41.960784%,42.352941%,43.137255%);stroke-opacity:1;stroke-miterlimit:4;" d="M 40 44.199219 L 47 41.300781 " transform="matrix(1,0,0,1,1,2)"/>
</g>
</svg>
